<svg width="182" height="11" viewBox="0 0 182 11" fill="none" xmlns="http://www.w3.org/2000/svg">
<path d="M0.809642 9.352L3.42564 5.344C3.45764 5.296 3.48564 5.252 3.50964 5.212C3.54164 5.172 3.56564 5.14 3.58164 5.116C3.90964 4.604 4.14964 4.172 4.30164 3.82C4.46164 3.468 4.54164 3.056 4.54164 2.584C4.54164 2.056 4.43364 1.648 4.21764 1.36C4.00164 1.064 3.67764 0.916 3.24564 0.916C2.68564 0.916 2.29764 1.096 2.08164 1.456C1.86564 1.808 1.75764 2.304 1.75764 2.944V3.16H0.881642V2.92C0.881642 2.008 1.06564 1.324 1.43364 0.868C1.80964 0.412 2.40164 0.184 3.20964 0.184C3.92964 0.184 4.47764 0.4 4.85364 0.831999C5.22964 1.256 5.41764 1.864 5.41764 2.656C5.41764 3.024 5.36564 3.372 5.26164 3.7C5.15764 4.028 5.02964 4.324 4.87764 4.588C4.73364 4.844 4.52964 5.176 4.26564 5.584L1.84164 9.256H5.21364V10H0.809642V9.352ZM11.0619 10.12C9.52586 10.12 8.75786 9.164 8.75786 7.252V3.028C8.75786 1.132 9.52586 0.184 11.0619 0.184C12.6139 0.184 13.3899 1.132 13.3899 3.028V7.252C13.3899 8.156 13.2099 8.86 12.8499 9.364C12.4899 9.868 11.8939 10.12 11.0619 10.12ZM11.0619 9.424C11.5819 9.424 11.9499 9.236 12.1659 8.86C12.3819 8.484 12.4899 7.972 12.4899 7.324V2.968C12.4899 2.312 12.3819 1.8 12.1659 1.432C11.9579 1.064 11.5899 0.879999 11.0619 0.879999C10.5419 0.879999 10.1739 1.064 9.95786 1.432C9.74986 1.8 9.64586 2.312 9.64586 2.968V7.324C9.64586 8.724 10.1179 9.424 11.0619 9.424ZM18.0411 5.164C17.0571 5.164 16.5651 4.54 16.5651 3.292V1.936C16.5651 1.344 16.6811 0.891999 16.9131 0.58C17.1451 0.26 17.5211 0.0999994 18.0411 0.0999994C18.5531 0.0999994 18.9251 0.256 19.1571 0.568C19.3891 0.88 19.5051 1.328 19.5051 1.912V3.304C19.5051 4.544 19.0171 5.164 18.0411 5.164ZM21.6411 0.196H22.4091L19.3491 10H18.5571L21.6411 0.196ZM18.0411 4.48C18.2891 4.48 18.4611 4.38 18.5571 4.18C18.6611 3.972 18.7131 3.688 18.7131 3.328V1.9C18.7131 1.54 18.6651 1.264 18.5691 1.072C18.4731 0.88 18.2971 0.784 18.0411 0.784C17.7851 0.784 17.6091 0.884 17.5131 1.084C17.4171 1.276 17.3691 1.552 17.3691 1.912V3.328C17.3691 3.688 17.4171 3.972 17.5131 4.18C17.6171 4.38 17.7931 4.48 18.0411 4.48ZM22.9131 10.072C21.9371 10.072 21.4491 9.448 21.4491 8.2V6.856C21.4491 6.264 21.5611 5.812 21.7851 5.5C22.0171 5.18 22.3931 5.02 22.9131 5.02C23.4331 5.02 23.8091 5.176 24.0411 5.488C24.2731 5.792 24.3891 6.24 24.3891 6.832V8.224C24.3891 9.456 23.8971 10.072 22.9131 10.072ZM22.9131 9.4C23.1611 9.4 23.3331 9.3 23.4291 9.1C23.5331 8.892 23.5851 8.604 23.5851 8.236V6.82C23.5851 6.452 23.5371 6.172 23.4411 5.98C23.3451 5.788 23.1691 5.692 22.9131 5.692C22.6651 5.692 22.4891 5.792 22.3851 5.992C22.2891 6.184 22.2411 6.46 22.2411 6.82V8.236C22.2411 8.604 22.2891 8.892 22.3851 9.1C22.4891 9.3 22.6651 9.4 22.9131 9.4ZM34.3194 10.12C33.4074 10.12 32.7594 9.86 32.3754 9.34C31.9994 8.82 31.8114 8.084 31.8114 7.132V3.1C31.8114 2.156 32.0034 1.436 32.3874 0.939999C32.7714 0.436 33.4154 0.184 34.3194 0.184C35.2074 0.184 35.8434 0.436 36.2274 0.939999C36.6114 1.444 36.8034 2.164 36.8034 3.1V7.144C36.8034 8.096 36.6154 8.832 36.2394 9.352C35.8634 9.864 35.2234 10.12 34.3194 10.12ZM34.3194 9.388C34.9114 9.388 35.3194 9.216 35.5434 8.872C35.7674 8.52 35.8794 8.008 35.8794 7.336V2.932C35.8794 2.26 35.7674 1.756 35.5434 1.42C35.3274 1.084 34.9194 0.916 34.3194 0.916C33.7114 0.916 33.2954 1.084 33.0714 1.42C32.8474 1.748 32.7354 2.252 32.7354 2.932V7.336C32.7354 8.016 32.8474 8.528 33.0714 8.872C33.2954 9.216 33.7114 9.388 34.3194 9.388ZM40.24 0.279999H43.732V0.964H41.152V4.624H43.3V5.296H41.152V10H40.24V0.279999ZM46.789 0.279999H50.281V0.964H47.701V4.624H49.849V5.296H47.701V10H46.789V0.279999ZM59.7711 10.12C59.0111 10.12 58.4311 9.888 58.0311 9.424C57.6311 8.952 57.4031 8.304 57.3471 7.48L58.1511 7.24C58.2231 7.928 58.3751 8.456 58.6071 8.824C58.8471 9.192 59.2391 9.376 59.7831 9.376C60.6951 9.376 61.1511 8.908 61.1511 7.972C61.1511 7.572 61.0551 7.22 60.8631 6.916C60.6791 6.612 60.3791 6.264 59.9631 5.872L58.2471 4.228C57.9351 3.94 57.7071 3.64 57.5631 3.328C57.4271 3.008 57.3591 2.656 57.3591 2.272C57.3591 1.608 57.5551 1.096 57.9471 0.736C58.3471 0.368 58.8831 0.184 59.5551 0.184C60.2751 0.184 60.8271 0.376 61.2111 0.76C61.5951 1.144 61.8191 1.772 61.8831 2.644L61.1031 2.848C61.0551 2.192 60.9151 1.704 60.6831 1.384C60.4591 1.064 60.0831 0.904 59.5551 0.904C59.1391 0.904 58.8071 1.012 58.5591 1.228C58.3111 1.444 58.1871 1.764 58.1871 2.188C58.1871 2.46 58.2391 2.704 58.3431 2.92C58.4471 3.136 58.6231 3.364 58.8711 3.604L60.5871 5.224C61.0271 5.64 61.3711 6.068 61.6191 6.508C61.8751 6.94 62.0031 7.408 62.0031 7.912C62.0031 8.616 61.7991 9.16 61.3911 9.544C60.9831 9.928 60.4431 10.12 59.7711 10.12ZM65.1706 0.279999H66.0826V10H65.1706V0.279999ZM70.9268 0.987999H69.0908V0.279999H73.6268V0.987999H71.8388V10H70.9268V0.987999ZM76.6035 0.279999H80.1195V0.987999H77.5275V4.636H79.6395V5.308H77.5275V9.316H80.1435V10H76.6035V0.279999ZM82.8848 0.279999H83.6648L84.9488 8.176L86.4128 0.424H87.1688L88.6688 8.188L89.8568 0.279999H90.6248L89.0528 10H88.3448L86.7968 1.984L85.2728 10H84.5288L82.8848 0.279999ZM93.8389 0.279999H94.7509V10H93.8389V0.279999ZM98.395 0.279999H100.507C101.467 0.279999 102.147 0.527999 102.547 1.024C102.947 1.512 103.147 2.216 103.147 3.136V7C103.147 7.968 102.951 8.712 102.559 9.232C102.175 9.744 101.519 10 100.591 10H98.395V0.279999ZM100.531 9.316C101.019 9.316 101.383 9.216 101.623 9.016C101.871 8.808 102.031 8.536 102.103 8.2C102.175 7.856 102.211 7.408 102.211 6.856V3.232C102.211 2.704 102.167 2.284 102.079 1.972C101.991 1.652 101.823 1.408 101.575 1.24C101.327 1.072 100.967 0.987999 100.495 0.987999H99.307V9.316H100.531ZM106.561 0.279999H110.077V0.987999H107.485V4.636H109.597V5.308H107.485V9.316H110.101V10H106.561V0.279999ZM120.019 10.12C119.083 10.12 118.435 9.884 118.075 9.412C117.715 8.932 117.535 8.244 117.535 7.348V0.279999H118.423V7.372C118.423 8.012 118.535 8.508 118.759 8.86C118.991 9.212 119.411 9.388 120.019 9.388C120.603 9.388 121.015 9.212 121.255 8.86C121.495 8.5 121.615 8.004 121.615 7.372V0.279999H122.491V7.348C122.491 8.228 122.303 8.912 121.927 9.4C121.559 9.88 120.923 10.12 120.019 10.12ZM126.009 0.279999H126.669L129.765 7.828V0.279999H130.557V10H129.909L126.801 2.368V10H126.009V0.279999ZM135.363 0.987999H133.527V0.279999H138.063V0.987999H136.275V10H135.363V0.987999ZM141.076 0.279999H141.988V10H141.076V0.279999ZM145.632 0.279999H146.544V9.316H149.304V10H145.632V0.279999ZM158.675 10.12C157.211 10.12 156.471 9.36 156.455 7.84V7.672H157.319C157.319 8.296 157.419 8.74 157.619 9.004C157.819 9.26 158.175 9.388 158.687 9.388C159.119 9.388 159.443 9.228 159.659 8.908C159.883 8.588 159.995 8.052 159.995 7.3V5.464C159.859 5.624 159.655 5.76 159.383 5.872C159.119 5.984 158.803 6.04 158.435 6.04C157.907 6.04 157.491 5.94 157.187 5.74C156.883 5.54 156.663 5.232 156.527 4.816C156.399 4.392 156.335 3.832 156.335 3.136C156.335 2.2 156.519 1.476 156.887 0.964C157.263 0.444 157.851 0.184 158.651 0.184C160.139 0.184 160.883 1.196 160.883 3.22V7.096C160.883 9.112 160.147 10.12 158.675 10.12ZM158.639 5.356C158.951 5.356 159.219 5.3 159.443 5.188C159.675 5.076 159.859 4.944 159.995 4.792V3.124C159.995 2.34 159.887 1.776 159.671 1.432C159.463 1.088 159.123 0.916 158.651 0.916C158.171 0.916 157.815 1.084 157.583 1.42C157.351 1.748 157.235 2.264 157.235 2.968C157.235 3.568 157.263 4.032 157.319 4.36C157.383 4.68 157.515 4.928 157.715 5.104C157.923 5.272 158.231 5.356 158.639 5.356ZM166.643 0.279999H167.411L164.651 10H163.871L166.643 0.279999ZM171.644 1.456C171.564 1.568 171.396 1.672 171.14 1.768C170.892 1.856 170.56 1.964 170.144 2.092V1.384C170.432 1.304 170.736 1.168 171.056 0.976C171.376 0.784 171.632 0.552 171.824 0.279999H172.532V10H171.644V1.456ZM176.542 9.352L179.158 5.344C179.19 5.296 179.218 5.252 179.242 5.212C179.274 5.172 179.298 5.14 179.314 5.116C179.642 4.604 179.882 4.172 180.034 3.82C180.194 3.468 180.274 3.056 180.274 2.584C180.274 2.056 180.166 1.648 179.95 1.36C179.734 1.064 179.41 0.916 178.978 0.916C178.418 0.916 178.03 1.096 177.814 1.456C177.598 1.808 177.49 2.304 177.49 2.944V3.16H176.614V2.92C176.614 2.008 176.798 1.324 177.166 0.868C177.542 0.412 178.134 0.184 178.942 0.184C179.662 0.184 180.21 0.4 180.586 0.831999C180.962 1.256 181.15 1.864 181.15 2.656C181.15 3.024 181.098 3.372 180.994 3.7C180.89 4.028 180.762 4.324 180.61 4.588C180.466 4.844 180.262 5.176 179.998 5.584L177.574 9.256H180.946V10H176.542V9.352Z" fill="black"/>
</svg>
